<?xml version="1.0" standalone="no"?>
<!DOCTYPE svg PUBLIC "-//W3C//DTD SVG 20010904//EN"
 "http://www.w3.org/TR/2001/REC-SVG-20010904/DTD/svg10.dtd">
<svg version="1.0" xmlns="http://www.w3.org/2000/svg"
 width="1123.000000pt" height="1123.000000pt" viewBox="0 0 1123.000000 1123.000000"
 preserveAspectRatio="xMidYMid meet">
<metadata>
Created by potrace 1.14, written by Peter Selinger 2001-2017
</metadata>
<g transform="translate(0.000000,1123.000000) scale(0.100000,-0.100000)"
fill="#000000" stroke="none">
<path d="M5687 9614 c-1 -1 -60 -4 -132 -8 -71 -3 -141 -8 -155 -11 -14 -2
-45 -6 -70 -9 -194 -23 -476 -107 -687 -206 -185 -86 -415 -233 -542 -345
-207 -182 -337 -327 -471 -528 -119 -178 -248 -445 -301 -624 -8 -29 -25 -52
-53 -75 -51 -41 -168 -152 -251 -238 -420 -435 -551 -866 -354 -1170 78 -122
217 -230 394 -308 95 -42 279 -99 395 -122 l55 -11 57 -98 c31 -53 90 -143
132 -199 51 -69 74 -107 70 -119 -5 -14 -4 -15 4 -4 7 10 17 5 43 -25 84 -95
237 -241 319 -304 25 -19 47 -38 50 -41 3 -3 48 -35 100 -71 123 -86 282 -173
421 -233 l110 -48 -38 -14 c-46 -17 -250 -81 -278 -87 -11 -3 -90 -23 -175
-46 -85 -22 -171 -43 -190 -46 -19 -3 -38 -8 -41 -9 -5 -4 -164 -38 -229 -50
-14 -3 -36 -7 -50 -10 -49 -10 -206 -37 -235 -41 -16 -2 -52 -8 -80 -14 -27
-5 -68 -12 -90 -15 -22 -2 -65 -7 -95 -11 -96 -11 -69 -17 50 -10 63 4 129 9
145 10 17 2 66 6 110 10 44 4 91 9 105 11 14 2 50 7 80 10 30 3 66 8 80 10 14
2 45 7 70 10 92 12 399 67 535 96 77 17 151 33 165 35 14 3 103 25 199 50 96
24 182 42 192 39 9 -3 26 -8 36 -10 264 -56 379 -69 598 -69 280 0 472 28 728
105 430 131 841 396 1140 737 33 38 40 42 54 30 15 -11 15 -11 6 6 -9 15 3 37
71 130 88 120 183 278 236 391 22 47 46 81 74 104 435 354 697 690 783 1003
13 45 18 99 17 188 0 117 -2 130 -33 205 -80 197 -257 345 -536 448 -88 33
-225 70 -232 63 -3 -2 -40 66 -84 152 -151 304 -349 564 -579 762 -14 12 -38
34 -55 48 -68 61 -247 185 -369 255 l-78 46 53 15 c30 8 74 20 99 27 25 7 50
14 55 15 6 2 20 5 33 8 13 3 31 7 40 10 9 3 28 7 42 10 14 2 72 16 130 30 58
13 152 34 210 45 58 12 116 24 130 26 14 3 41 8 60 11 19 3 42 7 50 9 8 2 38
7 65 11 28 3 52 8 55 9 3 2 33 7 65 10 33 4 68 9 79 11 10 2 44 6 75 10 31 3
58 8 61 11 4 4 -164 -4 -255 -12 -179 -15 -319 -30 -375 -40 -14 -2 -45 -7
-70 -10 -53 -7 -95 -14 -130 -20 -14 -2 -45 -7 -70 -11 -24 -3 -47 -7 -50 -9
-3 -2 -26 -6 -50 -10 -25 -3 -63 -10 -85 -15 -22 -5 -56 -12 -75 -15 -19 -3
-87 -17 -150 -32 -63 -14 -122 -26 -130 -25 -8 0 -53 16 -100 35 -101 41 -292
98 -380 113 -14 3 -41 9 -60 14 -19 5 -62 12 -95 16 -33 3 -68 8 -78 10 -34 6
-285 22 -290 18z m-10 -42 c-5 -8 -78 -162 -153 -322 -113 -241 -115 -243
-164 -261 -55 -19 -48 -17 -240 -96 -161 -67 -188 -80 -355 -158 -118 -55
-376 -184 -390 -195 -5 -4 -41 -24 -80 -44 -38 -20 -77 -41 -85 -46 -8 -5 -85
-50 -170 -101 -145 -86 -366 -232 -506 -334 l-61 -44 -1 48 c-1 41 4 55 39
102 22 30 53 77 69 104 38 66 104 127 160 148 94 36 123 59 153 121 23 47 31
57 47 53 19 -5 25 4 21 27 -6 31 12 56 54 72 50 19 88 62 43 49 -12 -4 -36
-15 -53 -25 -73 -43 -76 21 -5 105 28 33 45 62 39 64 -17 5 -50 -32 -129 -148
-16 -25 -30 -53 -30 -63 0 -17 -57 -132 -82 -166 -7 -9 -21 -24 -31 -32 -18
-13 -19 -12 -17 20 3 60 1 62 -27 35 -74 -68 -8 62 101 200 118 150 179 215
268 284 72 56 75 57 179 67 86 8 104 2 89 -27 -15 -28 -76 -52 -145 -58 -5 -1
-4 -6 3 -13 7 -7 12 -20 12 -29 0 -18 26 -33 40 -24 5 3 7 12 3 20 -5 15 2 18
40 18 9 0 17 5 17 12 0 23 40 63 70 70 27 6 30 11 30 45 0 29 4 39 20 43 16 4
20 0 20 -19 0 -21 3 -23 19 -15 10 6 36 25 58 44 29 23 69 42 136 62 87 25 97
31 106 58 l11 30 90 -5 c50 -3 93 -1 96 3 3 5 -1 9 -9 9 -7 0 -23 11 -35 23
l-22 24 25 46 c23 41 29 45 50 37 12 -5 26 -6 29 -3 3 4 6 -3 6 -14 0 -11 16
-41 35 -66 19 -25 35 -52 35 -59 0 -23 -29 -56 -53 -61 -19 -4 -18 -4 5 -6 46
-2 77 19 84 56 6 31 2 39 -32 74 -39 40 -50 64 -33 75 6 3 17 0 25 -7 12 -10
19 -7 42 19 16 19 54 42 95 58 49 19 67 31 63 41 -7 17 39 38 104 48 25 4 49
9 55 13 23 15 229 28 222 14z m267 -7 c76 -7 161 -21 251 -41 39 -9 79 -18 91
-20 91 -17 346 -110 324 -117 -8 -3 -101 -28 -205 -56 -162 -42 -440 -124
-497 -146 -17 -7 -25 8 -160 295 -22 47 -42 88 -44 92 -5 7 134 3 240 -7z
m916 -286 c156 -84 408 -265 402 -289 -1 -7 4 -23 13 -36 22 -33 19 -37 -15
-19 -17 9 -57 18 -88 21 l-57 6 -1 -94 -2 -93 44 -28 c24 -16 48 -26 53 -23 5
4 34 -5 63 -19 45 -22 61 -37 108 -108 30 -45 60 -104 67 -131 7 -27 22 -59
34 -72 14 -15 17 -23 8 -26 -7 -2 -35 43 -71 116 -48 96 -62 117 -69 104 -7
-13 -3 -31 16 -66 28 -55 38 -145 23 -221 -5 -25 -11 -53 -12 -61 -2 -9 -15
-15 -35 -16 -42 -1 -49 -10 -55 -64 -3 -25 -9 -58 -15 -73 -10 -26 -7 -34 35
-87 34 -44 48 -71 51 -102 5 -41 3 -44 -26 -54 l-30 -12 -16 53 c-8 29 -15 60
-15 68 0 8 -13 20 -30 27 -18 7 -30 20 -30 31 0 29 -22 69 -38 69 -7 0 -27 -9
-43 -21 -27 -19 -29 -19 -30 -2 -7 91 -19 98 -60 39 -18 -25 -36 -46 -41 -46
-19 0 -6 -38 22 -65 23 -22 33 -26 42 -17 13 13 53 15 82 3 20 -8 18 -12 -33
-53 -31 -26 -26 -60 15 -109 47 -57 64 -91 64 -132 0 -19 7 -40 15 -47 20 -17
16 -43 -28 -160 -41 -107 -81 -153 -145 -165 -37 -7 -90 -35 -117 -62 -14 -13
-17 -12 -33 7 -15 18 -21 20 -46 10 -16 -6 -30 -9 -32 -7 -3 3 -48 97 -169
352 -119 252 -311 657 -374 789 -39 82 -71 150 -71 151 0 2 -29 63 -64 137
-112 234 -168 353 -169 361 -3 12 110 55 388 147 299 99 395 128 420 129 11 0
54 -18 95 -40z m-1162 -151 c-2 -6 -10 -14 -16 -16 -7 -2 -10 2 -6 12 7 18 28
22 22 4z m106 -220 c19 -40 60 -127 91 -193 55 -115 86 -181 159 -337 18 -40
60 -127 91 -193 32 -66 72 -151 90 -190 18 -38 61 -128 95 -200 34 -71 77
-161 95 -200 18 -38 59 -124 90 -190 31 -66 70 -147 85 -180 15 -33 58 -123
95 -200 36 -77 76 -162 87 -188 l21 -48 -20 -21 -21 -20 -7 30 c-3 17 -15 34
-25 37 -23 7 -213 194 -361 354 -63 68 -131 143 -152 165 -22 23 -62 66 -89
96 -28 30 -105 113 -172 184 -67 71 -125 134 -131 140 -5 7 -38 42 -72 78
l-63 66 -44 -46 c-90 -95 -153 -163 -246 -263 -52 -57 -112 -121 -132 -143
l-38 -41 -137 0 c-210 0 -221 14 -145 175 27 58 79 167 116 244 36 76 66 139
66 141 0 1 43 91 95 199 52 108 95 198 95 200 0 2 33 73 73 157 41 85 98 204
127 266 l52 111 97 41 c53 22 97 40 99 41 1 0 17 -33 36 -72z m1697 -152 c67
-88 93 -135 104 -186 7 -35 6 -34 -34 20 -22 30 -45 60 -50 67 -16 18 -75 113
-111 178 l-33 60 32 -30 c18 -16 60 -65 92 -109z m-2226 -33 c-10 -21 -48
-101 -85 -178 -37 -77 -79 -165 -93 -195 -13 -30 -53 -113 -87 -185 -34 -71
-76 -159 -92 -195 -17 -36 -59 -123 -93 -195 -34 -71 -75 -158 -91 -192 -30
-65 -48 -78 -59 -43 -9 30 -34 50 -60 50 -41 0 -37 -43 9 -105 12 -16 25 -38
29 -47 4 -11 -27 -86 -84 -205 -50 -104 -98 -205 -106 -225 -15 -37 -33 -43
-33 -10 0 28 -55 134 -92 179 -20 23 -39 59 -42 80 -9 48 -127 246 -140 233
-5 -5 -16 -5 -26 0 -13 7 -6 -17 27 -98 25 -59 51 -114 58 -122 7 -8 19 -41
26 -73 7 -32 23 -69 35 -82 13 -14 28 -43 34 -65 8 -29 22 -48 55 -71 24 -17
46 -38 49 -46 5 -13 -8 -45 -120 -281 -24 -51 -59 -125 -78 -165 -18 -39 -59
-126 -91 -192 -31 -66 -80 -169 -108 -230 -29 -60 -77 -161 -108 -225 l-57
-115 -23 55 c-13 30 -47 101 -76 157 -47 93 -51 106 -47 155 3 29 4 65 4 81
-1 36 -38 135 -88 233 -35 68 -41 90 -44 155 -4 80 -11 92 -60 118 -16 8 -28
19 -28 24 0 6 -7 18 -16 28 -13 14 -21 15 -44 8 -15 -6 -45 -9 -67 -7 -33 3
-40 8 -57 43 -35 75 -47 140 -53 292 l-6 153 66 97 c68 101 111 154 209 257
54 58 57 60 85 47 15 -7 51 -28 80 -48 61 -42 83 -39 83 10 0 60 18 63 142 26
49 -15 79 -19 106 -14 20 5 54 9 75 10 55 4 76 41 92 164 l7 54 -28 -9 c-16
-4 -49 -9 -74 -11 -25 -1 -59 -5 -75 -9 -41 -8 -63 18 -74 85 -8 53 -6 61 15
61 7 0 47 21 90 46 82 49 76 48 196 28 20 -3 53 -1 72 6 30 10 36 16 36 40 0
24 -9 34 -60 65 -33 20 -60 39 -60 43 0 12 496 322 515 322 3 0 24 12 48 27
65 41 489 254 495 249 2 -3 -3 -22 -13 -43z m-1304 -754 c-13 -11 -26 -17 -29
-14 -7 6 29 34 43 34 6 0 -1 -9 -14 -20z m-102 -106 c7 -13 4 -25 -11 -45 -25
-35 -34 -35 -46 1 -9 26 -7 32 11 45 29 20 34 19 46 -1z m4329 -150 c63 -73
90 -123 112 -209 38 -146 -3 -326 -109 -488 -14 -23 -29 -48 -32 -56 -4 -8 -7
57 -6 145 0 88 -2 192 -6 230 -10 102 -17 168 -22 185 -2 8 -7 35 -10 60 -4
25 -17 90 -31 144 -13 54 -24 101 -24 103 0 11 86 -65 128 -114z m-2459 -170
c41 -46 257 -277 293 -315 17 -17 14 -21 -54 -90 -40 -40 -90 -87 -112 -104
l-41 -31 -1 -91 c-1 -84 -3 -94 -33 -140 -51 -81 -73 -78 -111 11 -12 29 -28
59 -35 67 -39 47 -135 312 -135 374 0 17 -5 38 -10 46 -8 12 -10 11 -10 -5 0
-47 -52 -60 -87 -22 l-21 22 71 76 c40 42 108 115 152 162 44 48 83 87 86 87
3 0 25 -21 48 -47z m-847 -163 c9 -16 32 -35 50 -43 48 -21 70 -49 62 -81 -3
-15 -14 -32 -23 -39 -9 -6 -23 -26 -30 -44 -16 -39 -84 -96 -146 -124 -25 -11
-45 -24 -45 -30 0 -10 -89 -54 -95 -47 -3 3 8 29 117 256 43 90 78 168 78 173
0 18 15 8 32 -21z m-1676 -287 c2 -93 18 -280 29 -333 3 -14 8 -43 11 -65 3
-22 10 -60 16 -85 5 -25 11 -52 13 -60 8 -39 57 -201 75 -247 11 -29 16 -53
11 -53 -19 0 -152 143 -185 200 -103 175 -108 375 -15 610 18 44 35 80 38 80
4 0 7 -21 7 -47z m1462 -281 c-19 -20 -69 -73 -111 -117 l-77 -80 31 65 c76
160 66 147 128 163 31 7 58 12 60 10 3 -2 -11 -20 -31 -41z m1869 -265 c32
-27 75 -60 96 -74 22 -15 50 -50 69 -84 30 -54 58 -77 58 -47 0 8 6 6 17 -4
11 -12 13 -21 6 -30 -5 -7 -15 -32 -21 -54 -10 -34 -16 -41 -37 -41 -35 0
-134 93 -141 132 -7 41 -44 101 -98 158 -63 66 -87 98 -81 107 10 17 77 -15
132 -63z m173 -69 c0 -18 -38 -6 -62 20 -27 29 -42 54 -58 99 -8 22 5 12 55
-41 36 -38 65 -73 65 -78z m969 -31 c-2 -1 -15 -11 -29 -22 l-25 -20 19 23
c11 12 24 22 29 22 6 0 8 -1 6 -3z m-69 -47 c3 0 -6 -10 -19 -20 -39 -33 -71
-21 -36 13 13 13 23 14 55 7z m-3214 -355 c17 -60 18 -115 1 -136 -7 -9 -28
-24 -47 -34 -19 -10 -49 -29 -67 -42 l-31 -24 17 -52 c21 -63 18 -81 -16 -93
-21 -7 -26 -16 -28 -47 -3 -42 -44 -102 -80 -119 -28 -13 -117 4 -161 31 -17
10 -44 45 -63 81 l-33 62 53 55 c30 31 61 63 69 73 8 9 67 72 131 141 64 68
138 148 164 177 l48 53 15 -38 c7 -21 20 -60 28 -88z m3320 -149 c-3 -58 -50
-164 -110 -248 l-33 -48 -47 102 c-26 56 -43 105 -39 109 21 21 219 147 225
143 4 -2 5 -28 4 -58z m-245 -227 c41 -45 73 -88 73 -96 -4 -30 -169 -186
-215 -202 -7 -2 -10 13 -8 42 4 40 2 44 -10 32 -13 -12 -16 -11 -26 8 -7 15
-19 21 -37 20 -37 -3 -123 -40 -184 -80 -29 -18 -74 -40 -101 -48 -28 -8 -61
-24 -74 -34 -16 -13 -34 -17 -52 -14 -32 6 -32 4 -8 51 10 20 21 54 25 74 6
34 12 40 99 84 51 26 169 91 262 145 94 54 173 98 176 99 4 0 40 -36 80 -81z"/>
<path d="M5662 8738 c-11 -24 -41 -88 -67 -143 -26 -55 -88 -185 -138 -290
-49 -104 -110 -233 -134 -285 -25 -52 -74 -155 -109 -229 -35 -73 -64 -135
-64 -137 0 -2 -22 -50 -50 -106 -27 -56 -50 -106 -50 -110 0 -4 17 11 38 34
20 23 48 54 62 68 14 15 70 75 125 134 55 60 116 125 135 146 19 21 61 66 94
101 32 35 88 94 123 131 l65 67 43 -47 c24 -26 63 -68 87 -93 77 -82 264 -283
292 -314 116 -127 210 -225 213 -222 2 2 -37 88 -87 191 -49 103 -90 188 -90
190 0 2 -33 73 -74 157 -40 85 -111 233 -156 329 -45 96 -109 231 -142 300
-33 69 -64 135 -69 148 -12 32 -24 27 -47 -20z"/>
<path d="M4602 8293 c-46 -25 -92 -72 -92 -93 0 -31 40 -110 74 -143 29 -29
31 -36 20 -53 -23 -36 -21 -99 4 -113 24 -13 107 -23 135 -16 23 6 23 8 11 55
-7 26 -19 59 -28 72 -8 12 -20 44 -26 70 -7 26 -27 64 -45 85 -30 35 -31 39
-18 60 9 13 24 23 34 23 20 0 21 1 23 40 1 21 -4 25 -29 28 -16 1 -45 -5 -63
-15z"/>
<path d="M10555 3591 c-87 -25 -142 -56 -200 -115 -127 -128 -155 -344 -58
-451 41 -45 108 -88 217 -140 126 -59 168 -86 193 -124 41 -63 32 -150 -21
-201 -94 -93 -345 -74 -475 36 -18 14 -33 25 -35 23 -2 -2 -17 -53 -34 -114
-34 -119 -33 -124 22 -150 87 -39 150 -50 306 -50 122 0 168 4 215 18 198 61
288 185 289 397 0 70 -4 93 -23 132 -46 90 -125 151 -271 208 -169 66 -220
107 -220 178 0 97 86 163 220 168 94 3 166 -16 253 -66 44 -25 69 -35 72 -27
5 15 40 153 49 188 5 24 1 28 -54 53 -120 54 -326 71 -445 37z"/>
<path d="M764 3528 c-41 -80 -266 -533 -436 -878 -83 -168 -153 -308 -155
-312 -2 -5 46 -8 106 -8 l111 0 75 155 75 155 184 0 184 0 11 -77 c6 -43 14
-100 17 -128 3 -27 7 -59 9 -70 2 -11 4 -23 4 -27 1 -5 51 -8 112 -8 l112 0
-7 33 c-6 31 -18 107 -32 212 -3 28 -8 59 -10 70 -2 11 -13 85 -24 165 -11 80
-22 156 -25 170 -2 14 -7 50 -10 80 -4 30 -8 57 -10 60 -2 3 -6 30 -10 60 -3
30 -8 66 -10 80 -10 77 -16 118 -20 140 -3 14 -7 43 -10 65 -2 22 -7 57 -11
78 l-6 37 -99 0 -99 0 -26 -52z m70 -313 c3 -17 8 -66 11 -110 3 -44 8 -91 10
-105 2 -14 7 -55 11 -92 l6 -68 -112 0 c-69 0 -110 4 -108 10 8 24 173 398
175 396 1 -1 4 -15 7 -31z"/>
<path d="M5826 3563 c-3 -10 -15 -72 -26 -138 -19 -116 -24 -142 -35 -195 -3
-14 -8 -42 -11 -64 -3 -21 -8 -48 -10 -60 -6 -28 -14 -74 -20 -111 -2 -16 -11
-66 -19 -110 -8 -44 -17 -96 -20 -115 -3 -19 -15 -87 -26 -150 -12 -63 -23
-126 -25 -140 -3 -14 -7 -36 -9 -50 -3 -14 -7 -42 -11 -62 l-5 -38 105 0 c119
0 107 -10 126 110 7 41 14 84 16 95 3 11 7 34 10 51 3 18 15 90 28 160 l22
129 262 3 262 2 -4 -22 c-8 -36 -25 -126 -41 -218 -17 -99 -21 -119 -40 -224
-8 -43 -15 -80 -15 -82 0 -2 49 -4 110 -4 60 0 109 3 108 8 -3 10 3 47 52 317
17 94 33 185 36 204 3 18 8 43 10 55 4 22 8 45 24 136 11 68 15 87 40 225 11
61 23 126 26 145 2 19 7 46 10 58 3 13 7 41 10 63 l6 39 -106 0 c-58 0 -106
-3 -106 -7 0 -9 -27 -162 -35 -203 -3 -14 -8 -41 -11 -60 -2 -19 -9 -57 -14
-85 -6 -27 -13 -68 -16 -90 -3 -22 -8 -43 -11 -47 -2 -5 -121 -8 -264 -8
l-259 0 5 23 c8 36 43 228 51 277 12 80 17 108 30 173 l6 27 -106 0 c-91 0
-105 -2 -110 -17z"/>
<path d="M1637 3229 c-141 -34 -240 -157 -241 -299 -1 -36 2 -77 6 -91 10 -36
61 -83 111 -104 92 -39 103 -43 124 -49 31 -10 73 -63 73 -93 0 -14 -8 -41
-17 -60 -23 -48 -69 -67 -147 -59 -59 5 -183 55 -198 79 -8 14 -10 10 -38 -92
-23 -88 -21 -91 58 -122 79 -31 260 -36 336 -9 141 48 216 149 216 289 0 123
-46 179 -195 236 -116 45 -145 69 -145 119 0 48 53 101 109 111 74 12 162 -12
219 -60 l31 -26 11 43 c6 24 18 64 25 91 14 47 14 47 -13 61 -74 38 -239 56
-325 35z"/>
<path d="M2367 3229 c-137 -32 -236 -151 -242 -290 -3 -80 7 -115 46 -155 35
-36 48 -43 144 -79 90 -34 125 -70 121 -123 -9 -119 -139 -146 -299 -64 l-72
37 -22 -85 c-14 -58 -18 -89 -11 -97 5 -7 35 -22 66 -35 48 -18 76 -22 182
-22 106 0 134 4 182 23 111 43 177 137 186 263 9 134 -35 192 -194 254 -116
45 -144 68 -144 120 0 74 97 128 197 109 46 -8 114 -40 141 -65 l21 -20 11 42
c6 24 18 64 25 91 l14 47 -29 15 c-75 39 -233 55 -323 34z"/>
<path d="M4194 3213 c-27 -13 -65 -40 -86 -60 -35 -34 -37 -35 -33 -12 13 81
21 74 -86 77 l-96 3 -13 -63 c-17 -89 -16 -82 -36 -206 -2 -12 -9 -50 -15 -85
-6 -34 -13 -73 -15 -87 -3 -14 -12 -63 -20 -110 -9 -47 -17 -92 -19 -100 -1
-8 -5 -31 -9 -50 -3 -19 -8 -53 -12 -75 -3 -22 -9 -57 -14 -77 l-8 -38 103 0
103 0 6 28 c8 38 28 153 31 177 3 17 35 198 49 270 2 11 7 44 11 72 13 102 87
163 195 163 55 0 57 1 67 33 6 17 22 63 36 100 l26 68 -58 -2 c-37 -1 -75 -11
-107 -26z"/>
<path d="M4730 3230 c-197 -48 -347 -211 -385 -421 -48 -256 63 -449 281 -490
76 -14 194 -6 282 21 89 27 100 36 106 88 3 23 8 60 11 81 l6 39 -88 -31
c-113 -39 -237 -44 -293 -12 -47 28 -89 91 -96 145 l-6 45 113 -2 c134 -2 201
9 284 46 135 61 197 198 154 341 -15 49 -70 109 -124 134 -44 21 -187 31 -245
16z m169 -182 c35 -21 46 -81 24 -126 -29 -59 -120 -97 -245 -101 -72 -3 -108
4 -108 20 0 6 12 35 27 66 30 62 108 138 157 153 39 12 118 5 145 -12z"/>
<path d="M7210 3221 c-74 -23 -106 -41 -172 -95 -119 -97 -189 -254 -191 -426
-2 -259 135 -403 370 -387 167 11 318 117 397 275 50 101 61 153 60 277 -1 90
-5 121 -24 170 -30 78 -106 154 -180 182 -69 26 -183 28 -260 4z m184 -177
c61 -40 90 -169 65 -297 -31 -167 -148 -280 -271 -264 -85 11 -132 91 -131
222 2 174 73 310 184 352 44 16 119 10 153 -13z"/>
<path d="M8235 3223 c-22 -9 -57 -29 -77 -45 l-38 -29 0 36 0 35 -85 0 c-61 0
-85 -4 -86 -12 0 -7 -2 -20 -4 -28 -1 -8 -12 -69 -24 -135 -12 -66 -24 -131
-26 -145 -3 -14 -12 -63 -20 -110 -8 -47 -17 -96 -20 -110 -11 -66 -47 -278
-51 -312 l-6 -39 103 3 c82 2 103 6 104 18 6 39 16 94 61 354 47 267 50 281
79 309 42 43 86 58 147 52 80 -7 102 -35 102 -127 0 -40 -3 -91 -7 -113 -4
-22 -9 -56 -13 -75 -3 -19 -16 -98 -30 -175 -13 -77 -26 -156 -30 -175 -3 -19
-7 -43 -10 -52 -5 -16 4 -18 100 -18 58 0 106 3 106 8 0 4 5 34 10 67 6 33 13
76 15 95 3 19 8 45 10 57 7 31 45 250 52 298 14 100 64 181 127 205 32 12 122
5 142 -11 46 -38 46 -113 -1 -385 -20 -115 -38 -216 -40 -224 -2 -8 -7 -37
-10 -63 l-7 -48 104 3 103 3 22 125 c12 69 24 143 28 165 3 22 14 85 24 140
13 64 19 136 17 200 -1 90 -5 106 -31 155 -41 75 -97 109 -193 117 -114 9
-205 -21 -282 -94 l-45 -42 -14 27 c-22 44 -43 64 -94 87 -58 27 -152 30 -212
8z"/>
<path d="M9670 3226 c-226 -66 -381 -289 -375 -541 8 -315 267 -454 617 -330
27 9 50 20 52 24 3 4 8 30 11 57 3 27 8 63 10 80 l5 32 -87 -30 c-149 -50
-256 -48 -321 7 -35 29 -64 85 -69 135 l-4 35 123 0 c149 0 192 7 269 41 72
32 140 103 158 164 39 131 -12 262 -124 314 -51 24 -201 31 -265 12z m159
-166 c43 -11 65 -44 64 -94 -2 -81 -87 -134 -227 -143 -89 -6 -136 0 -136 17
0 23 45 103 81 143 63 72 139 99 218 77z"/>
<path d="M2900 3033 c-18 -104 -41 -230 -50 -282 -50 -270 17 -415 204 -436
82 -10 135 1 199 39 l56 34 -6 -29 -6 -30 99 3 99 3 6 45 c4 25 10 59 13 75 3
17 22 122 42 235 19 113 37 214 39 225 1 11 12 72 24 135 12 63 23 127 26 143
l5 27 -104 0 -103 0 -18 -102 c-9 -57 -30 -175 -46 -263 -15 -88 -31 -176 -34
-195 -15 -91 -19 -101 -50 -129 -89 -78 -213 -62 -241 32 -14 44 -9 116 16
260 12 67 23 131 25 142 1 11 6 36 10 55 3 19 7 42 9 50 1 8 6 38 10 65 4 28
10 58 13 68 4 15 -5 17 -100 17 l-104 0 -33 -187z"/>
</g>
</svg>
